<svg width="51" height="47" viewBox="0 0 51 47" fill="none" xmlns="http://www.w3.org/2000/svg">
<path d="M29.6622 30.9077H45.0919V40.8598H29.6622V30.9077Z" fill="#FFF59B"/>
<path d="M5.63879 30.9077H21.0685V40.8598H5.63879V30.9077Z" fill="#FFF59B"/>
<path d="M49.3888 21.3117H1.34192C0.802563 21.3117 0.365356 21.7489 0.365356 22.2883V45.1566C0.365356 45.696 0.802563 46.1332 1.34192 46.1332H49.3888C49.9282 46.1332 50.3654 45.696 50.3654 45.1566V22.2883C50.3654 21.7489 49.9282 21.3117 49.3888 21.3117ZM2.31848 23.2648H48.4122V25.6343H2.31848V23.2648ZM2.31848 27.5874H24.3888V44.1801H2.31848V27.5874ZM48.4122 44.1801H26.3419V27.5874H48.4122V44.1801Z" fill="#020288"/>
<path d="M49.3888 0H1.34192C0.802563 0 0.365356 0.437207 0.365356 0.976563V12.6864C0.365356 13.2258 0.802563 13.663 1.34192 13.663H49.3888C49.9282 13.663 50.3654 13.2258 50.3654 12.6864V0.976563C50.3654 0.437207 49.9282 0 49.3888 0ZM2.31848 1.95313H24.3888V11.7099H2.31848V1.95313ZM48.4122 11.7099H26.3419V1.95313H48.4122V11.7099Z" fill="#020288"/>
<path d="M34.7965 10.0589H39.9577C40.4971 10.0589 40.9343 9.62169 40.9343 9.08234C40.9343 8.54298 40.4971 8.10577 39.9577 8.10577H34.7965C34.2572 8.10577 33.8199 8.54298 33.8199 9.08234C33.8199 9.62169 34.2572 10.0589 34.7965 10.0589Z" fill="#020288"/>
<path d="M15.9342 8.10577H10.7729C10.2336 8.10577 9.79639 8.54298 9.79639 9.08234C9.79639 9.62169 10.2336 10.0589 10.7729 10.0589H15.9342C16.4735 10.0589 16.9107 9.62169 16.9107 9.08234C16.9107 8.54298 16.4735 8.10577 15.9342 8.10577Z" fill="#020288"/>
<path d="M33.4688 36.8604H34.3664C34.9058 36.8604 35.343 36.4232 35.343 35.8838C35.343 35.3445 34.9058 34.9073 34.3664 34.9073H33.4688C32.9294 34.9073 32.4922 35.3445 32.4922 35.8838C32.4922 36.4232 32.9294 36.8604 33.4688 36.8604Z" fill="#020288"/>
<path d="M17.2619 34.9073H16.3643C15.8249 34.9073 15.3877 35.3445 15.3877 35.8838C15.3877 36.4232 15.8249 36.8604 16.3643 36.8604H17.2619C17.8013 36.8604 18.2385 36.4232 18.2385 35.8838C18.2385 35.3445 17.8013 34.9073 17.2619 34.9073Z" fill="#020288"/>
</svg>
