<svg width="45" height="50" viewBox="0 0 45 50" fill="none" xmlns="http://www.w3.org/2000/svg">
<path d="M28.2827 21.0544H17.1184C17.1184 23.0247 15.4977 24.6277 13.5057 24.6277V35.4485C13.5057 38.2916 15.189 40.8712 17.8083 42.0421L22.7005 44.2289L27.5927 42.042C30.212 40.8711 31.8953 38.2915 31.8953 35.4484V24.6277C29.9033 24.6277 28.2827 23.0247 28.2827 21.0544Z" fill="#A4FCC4"/>
<path d="M21.3063 32.1922C20.9116 31.825 20.2937 31.8468 19.926 32.2415C19.5585 32.6363 19.5806 33.2542 19.9753 33.6218L21.6982 35.2258C21.8798 35.3949 22.118 35.4876 22.3636 35.4876C22.3982 35.4876 22.4328 35.4859 22.4674 35.4821C22.7489 35.4519 23.0034 35.3012 23.1652 35.0689L25.5616 31.6261C25.8698 31.1835 25.7608 30.5748 25.3181 30.2667C24.8752 29.9585 24.2668 30.0676 23.9587 30.5103L22.2053 33.0291L21.3063 32.1922Z" fill="#020288"/>
<path d="M44.2965 17.8774L40.2952 14.2018V5.74455C40.2952 5.20852 39.863 4.77268 39.3271 4.76799L33.0987 4.71379H33.0902C32.8328 4.71379 32.5856 4.81545 32.4027 4.9968C32.2177 5.1802 32.1137 5.4299 32.1137 5.69035V7.59827L25.3699 1.02901C25.3438 1.00362 25.3164 0.979691 25.2876 0.957328C24.4927 0.339943 23.5012 0 22.4954 0C21.4896 0 20.498 0.339943 19.7032 0.957426C19.6816 0.974223 19.6608 0.991898 19.6407 1.01036L1.10349 18.082C0.90271 18.2669 0.788452 18.5274 0.788452 18.8003V26.2169C0.788452 26.6046 1.01785 26.9556 1.37273 27.1112C1.72771 27.267 2.14129 27.198 2.42645 26.9353L4.02001 25.4679V47.0678C4.02001 48.6847 5.33544 50 6.95215 50H38.4485C40.0653 50 41.3806 48.6846 41.3806 47.0678V25.8303L42.9745 27.2967C43.1583 27.4658 43.3955 27.5546 43.6359 27.5546C43.7684 27.5546 43.902 27.5276 44.0282 27.4723C44.3831 27.3165 44.6123 26.9656 44.6123 26.578V18.5966C44.6125 18.3232 44.4978 18.0624 44.2965 17.8774ZM39.4277 47.068C39.4277 47.6078 38.9885 48.0471 38.4487 48.0471H6.95225C6.4124 48.0471 5.97324 47.6078 5.97324 47.068V23.6695L22.4957 8.4555L39.4277 24.0334V47.068ZM42.6593 24.3525L23.1566 6.4096C22.9698 6.23762 22.7326 6.15168 22.4955 6.15168C22.2582 6.15168 22.0209 6.23772 21.834 6.40989L2.74159 23.9902V19.2285L20.9314 2.47696C21.38 2.13888 21.9338 1.95313 22.4954 1.95313C23.0527 1.95313 23.6025 2.13614 24.0494 2.46935L32.4088 10.6125C32.6899 10.8865 33.1079 10.9653 33.4698 10.8128C33.8316 10.6602 34.0667 10.3057 34.0667 9.91303V6.67542L38.3419 6.71262V14.6308C38.3419 14.9043 38.4566 15.1651 38.6578 15.35L42.6592 19.0256V24.3525H42.6593Z" fill="#020288"/>
</svg>
