<svg width="51" height="35" viewBox="0 0 51 35" fill="none" xmlns="http://www.w3.org/2000/svg">
<path d="M48.9899 11.2035C48.9899 8.58076 46.8615 6.45459 44.2359 6.45459C43.7872 6.45459 43.3531 6.5167 42.9416 6.63272C42.4072 2.89883 39.0198 0 34.9793 0C32.4463 0 29.9917 1.14268 28.4368 3.01582C27.7953 2.63359 27.0454 2.41396 26.2442 2.41396C23.9531 2.41396 22.0819 4.20938 21.9634 6.46856C21.8427 6.45938 21.7208 6.45459 21.5978 6.45459C19.3876 6.45459 17.5298 7.96123 16.9972 10.0024H21.0769C21.9555 10.0024 22.6977 10.5867 22.9362 11.3879H48.9862C48.9887 11.3271 48.9899 11.2654 48.9899 11.2035Z" fill="#A4FCC4"/>
<path d="M49.6003 10.4113H23.5583C23.0439 9.58047 22.1241 9.02588 21.0771 9.02588H10.8551C9.80815 9.02588 8.88833 9.58047 8.37388 10.4113H1.55347C1.01411 10.4113 0.576904 10.8486 0.576904 11.3879V21.1136C0.576904 25.3537 3.82173 28.8504 7.95864 29.2506C7.7355 29.7044 7.61001 30.2146 7.61001 30.7536C7.61001 32.6383 9.14331 34.1716 11.028 34.1716C12.9126 34.1716 14.4459 32.6383 14.4459 30.7536C14.4459 30.2297 14.3274 29.733 14.1159 29.2888H37.038C36.8264 29.733 36.708 30.2297 36.708 30.7536C36.708 32.6383 38.2413 34.1716 40.1259 34.1716C42.0106 34.1716 43.5439 32.6383 43.5439 30.7536C43.5439 30.2146 43.4184 29.7044 43.1953 29.2506C47.3321 28.8504 50.5769 25.3537 50.5769 21.1136V11.3879C50.5769 10.8486 50.1396 10.4113 49.6003 10.4113ZM48.6238 15.2397H23.9933V12.3646H48.6238V15.2397ZM10.8551 10.9791H21.077C21.6081 10.9791 22.0401 11.4111 22.0401 11.9421V22.7316H20.588V20.9941C20.588 20.4549 20.1508 20.0176 19.6115 20.0176C19.0721 20.0176 18.6349 20.4549 18.6349 20.9941V22.7316H16.9425V20.9941C16.9425 20.4549 16.5053 20.0176 15.966 20.0176C15.4266 20.0176 14.9894 20.4549 14.9894 20.9941V22.7316H13.297V20.9941C13.297 20.4549 12.8598 20.0176 12.3205 20.0176C11.7811 20.0176 11.3439 20.4549 11.3439 20.9941V22.7316H9.89204V11.9421C9.89204 11.411 10.3241 10.9791 10.8551 10.9791ZM7.93892 12.3645V15.2396H2.53003V12.3645H7.93892ZM12.4928 30.7537C12.4928 31.5614 11.8357 32.2186 11.028 32.2186C10.2203 32.2186 9.56313 31.5614 9.56313 30.7537C9.56313 29.946 10.2203 29.2889 11.028 29.2889C11.8357 29.2889 12.4928 29.9459 12.4928 30.7537ZM40.1258 32.2186C39.3181 32.2186 38.661 31.5614 38.661 30.7537C38.661 29.946 39.3181 29.2889 40.1258 29.2889C40.9335 29.2889 41.5907 29.946 41.5907 30.7537C41.5907 31.5614 40.9336 32.2186 40.1258 32.2186ZM48.6238 21.1136C48.6238 24.5445 45.8326 27.3357 42.4017 27.3357H8.7521C5.32124 27.3357 2.53003 24.5445 2.53003 21.1136V17.1929H7.93892V23.7083C7.93892 24.2476 8.37612 24.6849 8.91548 24.6849H23.0167C23.5561 24.6849 23.9933 24.2476 23.9933 23.7083V17.1929H48.6238V21.1136Z" fill="#020288"/>
</svg>
