<svg width="51" height="43" viewBox="0 0 51 43" fill="none" xmlns="http://www.w3.org/2000/svg">
<path d="M27.6115 27.3255H43.5273V36.8656H27.6115V27.3255Z" fill="#A4FCC4"/>
<path d="M7.20337 27.3255H23.1192V36.8656H7.20337V27.3255Z" fill="#A4FCC4"/>
<path d="M49.3888 40.1859H48.8008V23.0286C48.8008 22.4893 48.3635 22.0521 47.8242 22.0521H31.3304L30.6958 19.5563H39.2225C39.7617 19.5563 40.199 19.1191 40.199 18.5798V0.976563C40.199 0.437207 39.7617 0 39.2225 0H11.5082C10.969 0 10.5317 0.437207 10.5317 0.976563V18.5798C10.5317 19.1191 10.969 19.5563 11.5082 19.5563H20.0349L19.4003 22.0521H2.90647C2.36721 22.0521 1.92991 22.4893 1.92991 23.0286V40.1859H1.34192C0.802661 40.1859 0.365356 40.6231 0.365356 41.1625C0.365356 41.7019 0.802661 42.1391 1.34192 42.1391H49.3888C49.9281 42.1391 50.3654 41.7019 50.3654 41.1625C50.3654 40.6231 49.9281 40.1859 49.3888 40.1859ZM12.4848 1.95313H38.246V17.6032H12.4848V1.95313ZM22.0501 19.5563H28.6806L29.3152 22.0521H21.4155L22.0501 19.5563ZM3.88303 40.1859V24.0052H46.8476V40.1859H3.88303Z" fill="#020288"/>
<path d="M31.1855 30.1964C30.6463 30.1964 30.209 30.6336 30.209 31.1729V33.0181C30.209 33.5574 30.6463 33.9946 31.1855 33.9946C31.7248 33.9946 32.1621 33.5574 32.1621 33.0181V31.1729C32.1621 30.6337 31.7248 30.1964 31.1855 30.1964Z" fill="#020288"/>
<path d="M19.5452 30.1964C19.0059 30.1964 18.5686 30.6336 18.5686 31.1729V33.0181C18.5686 33.5574 19.0059 33.9946 19.5452 33.9946C20.0844 33.9946 20.5217 33.5574 20.5217 33.0181V31.1729C20.5217 30.6337 20.0845 30.1964 19.5452 30.1964Z" fill="#020288"/>
</svg>
