<svg width="51" height="32" viewBox="0 0 51 32" fill="none" xmlns="http://www.w3.org/2000/svg">
<path d="M12.9424 5.18866H21.5711V10.2588H12.9424V5.18866Z" fill="#FFBDBC"/>
<path d="M40.0003 0H29.6166C28.056 0 26.6667 0.747265 25.7885 1.90244C24.9103 0.747265 23.521 0 21.9604 0H11.5767C8.92734 0 6.77197 2.15322 6.77197 4.8V9.65029C6.77197 10.1896 7.20928 10.6268 7.74854 10.6268C8.28779 10.6268 8.7251 10.1896 8.7251 9.65029V4.8C8.7251 3.23027 10.0044 1.95312 11.5767 1.95312H21.9604C23.5327 1.95312 24.8119 3.23027 24.8119 4.8V19.9896C24.8119 20.529 25.2492 20.9662 25.7885 20.9662C26.3277 20.9662 26.765 20.529 26.765 19.9896V4.8C26.765 3.23027 28.0443 1.95312 29.6166 1.95312H40.0003C41.5727 1.95312 42.8519 3.23027 42.8519 4.8V9.65029C42.8519 10.1896 43.2892 10.6268 43.8284 10.6268C44.3677 10.6268 44.805 10.1896 44.805 9.65029V4.8C44.805 2.15322 42.6496 0 40.0003 0Z" fill="#020288"/>
<path d="M30.0059 5.18866H38.6346V10.2588H30.0059V5.18866Z" fill="#FFBDBC"/>
<path d="M10.7515 21.1664H25.7885V19.541C25.7885 17.4294 24.0746 15.7176 21.9604 15.7176H11.5766C11.2933 15.7176 11.0172 15.7484 10.7515 15.8067V21.1664Z" fill="#FFBDBC"/>
<path d="M40.8255 21.1664V15.8067C40.5597 15.7484 40.2837 15.7177 40.0004 15.7177H29.6166C27.5023 15.7177 25.7885 17.4295 25.7885 19.5411V21.1665H40.8255V21.1664Z" fill="#FFBDBC"/>
<path d="M45.3186 8.67365C42.3025 8.67365 39.8488 11.1249 39.8488 14.1379V20.1899H11.728V14.1379C11.728 11.1249 9.27429 8.67365 6.25818 8.67365C3.24207 8.67365 0.788452 11.1249 0.788452 14.1379C0.788452 16.7737 2.69714 19.0042 5.20564 19.4996V26.9629C5.20564 27.5023 5.64294 27.9395 6.1822 27.9395H7.38162L8.26111 30.5298C8.39558 30.926 8.76746 31.1924 9.18581 31.1924H12.3438C12.7622 31.1924 13.1341 30.9259 13.2685 30.5298L14.148 27.9395H37.4289L38.3084 30.5298C38.4428 30.926 38.8147 31.1924 39.2331 31.1924H42.3911C42.8094 31.1924 43.1813 30.9259 43.3158 30.5298L44.1953 27.9395H45.3187C45.8546 27.9395 46.2903 27.5076 46.2953 26.9718L46.3634 19.5012C48.876 19.009 50.7885 16.7767 50.7885 14.1379C50.7885 11.1249 48.3347 8.67365 45.3186 8.67365ZM11.6441 29.2393H9.88552L9.44421 27.9394H12.0853L11.6441 29.2393ZM41.6914 29.2393H39.9328L39.4915 27.9394H42.1326L41.6914 29.2393ZM45.3785 17.6485C44.849 17.6573 44.423 18.0865 44.4181 18.616L44.351 25.9863H7.15876V18.625C7.15876 18.092 6.73132 17.6574 6.19841 17.6485C4.29236 17.6169 2.74158 16.042 2.74158 14.1379C2.74158 12.2019 4.31912 10.6268 6.25828 10.6268C8.19744 10.6268 9.77498 12.2019 9.77498 14.1379V21.1664C9.77498 21.7058 10.2123 22.143 10.7515 22.143H40.8255C41.3647 22.143 41.802 21.7058 41.802 21.1664V14.1379C41.802 12.2019 43.3796 10.6268 45.3187 10.6268C47.2579 10.6268 48.8353 12.2019 48.8353 14.1379C48.8353 16.042 47.2845 17.6169 45.3785 17.6485Z" fill="#020288"/>
</svg>
