<svg width="50" height="36" viewBox="0 0 50 36" fill="none" xmlns="http://www.w3.org/2000/svg">
<path d="M5.21521 27.4311H44.7846V31.6199H5.21521V27.4311Z" fill="#B2F0FB"/>
<path d="M22.7976 17.3845H7.0022V11.725C7.0022 10.9149 7.65894 10.2581 8.46909 10.2581H21.3306C22.1408 10.2581 22.7975 10.9149 22.7975 11.725V17.3845H22.7976Z" fill="#B2F0FB"/>
<path d="M42.9979 17.3845H27.2025V11.725C27.2025 10.9149 27.8593 10.2581 28.6694 10.2581H41.5309C42.3411 10.2581 42.9978 10.9149 42.9978 11.725V17.3845H42.9979Z" fill="#B2F0FB"/>
<path d="M47.8516 16.419V0.976563C47.8516 0.437305 47.4144 0 46.875 0C46.3356 0 45.8984 0.437305 45.8984 0.976563V2.25215H4.10156V0.976563C4.10156 0.437305 3.66436 0 3.125 0C2.58564 0 2.14844 0.437305 2.14844 0.976563V16.419C0.944434 16.5356 0 17.5531 0 18.7872V31.6198C0 32.1591 0.437207 32.5964 0.976562 32.5964H2.14844V34.5371C2.14844 35.0764 2.58564 35.5137 3.125 35.5137C3.66436 35.5137 4.10156 35.0764 4.10156 34.5371V32.5964H45.8984V34.5371C45.8984 35.0764 46.3356 35.5137 46.875 35.5137C47.4144 35.5137 47.8516 35.0764 47.8516 34.5371V32.5964H49.0234C49.5628 32.5964 50 32.1591 50 31.6198V18.7872C50 17.5531 49.0556 16.5356 47.8516 16.419ZM45.8984 16.4079H4.10156V4.20518H45.8984V16.4079ZM1.95312 18.7872C1.95312 18.5523 2.14434 18.361 2.3793 18.361H47.6206C47.8556 18.361 48.0468 18.5523 48.0468 18.7872V22.2656H1.95312V18.7872ZM48.0469 30.6433H1.95312V24.2188H48.0469V30.6433Z" fill="#020288"/>
</svg>
