<svg width="28" height="50" viewBox="0 0 28 50" fill="none" xmlns="http://www.w3.org/2000/svg">
<path d="M22.2383 5.27344V17.0456H5.85029V5.27344H22.2383Z" fill="#B2F0FB"/>
<path d="M22.2383 25.6393V44.7265H5.85029V25.6393H22.2383Z" fill="#B2F0FB"/>
<path d="M25.0312 0H3.05737C1.6897 0 0.576904 1.11279 0.576904 2.48047V47.5195C0.576904 48.8873 1.6897 50 3.05737 50H25.0313C26.399 50 27.5118 48.8872 27.5118 47.5195V2.48047C27.5117 1.11279 26.399 0 25.0312 0V0ZM2.53003 2.48047C2.53003 2.18965 2.76655 1.95312 3.05737 1.95312H25.0313C25.3221 1.95312 25.5586 2.18975 25.5586 2.48047V20.3658H2.53003V2.48047ZM25.5585 47.5195C25.5585 47.8104 25.322 48.0469 25.0312 48.0469H3.05737C2.76655 48.0469 2.53003 47.8103 2.53003 47.5195V22.319H25.5586V47.5195H25.5585Z" fill="#020288"/>
<path d="M9.54382 39.0854C10.0832 39.0854 10.5204 38.648 10.5204 38.1088V28.8335C10.5204 28.2942 10.0832 27.8569 9.54382 27.8569C9.00447 27.8569 8.56726 28.2942 8.56726 28.8335V38.1088C8.56726 38.6481 9.00447 39.0854 9.54382 39.0854Z" fill="#020288"/>
<path d="M9.54382 8.24237C9.00447 8.24237 8.56726 8.67968 8.56726 9.21893V13.1C8.56726 13.6392 9.00447 14.0766 9.54382 14.0766C10.0832 14.0766 10.5204 13.6392 10.5204 13.1V9.21893C10.5204 8.67968 10.0832 8.24237 9.54382 8.24237Z" fill="#020288"/>
</svg>
