<svg width="50" height="45" viewBox="0 0 50 45" fill="none" xmlns="http://www.w3.org/2000/svg">
<path fill-rule="evenodd" clip-rule="evenodd" d="M36.7189 36.1328V16.6016C36.7189 15.5273 35.8399 14.6484 34.7657 14.6484H15.2345C14.1605 14.6484 13.2814 15.5274 13.2814 16.6016V36.1328H36.7189Z" fill="#FFBEBC"/>
<path d="M45.1172 9.76559H14.2579V7.81247H40.6249C42.2404 7.81247 43.5546 6.49822 43.5546 4.88279C43.5546 3.26737 42.2404 1.95312 40.6249 1.95312H14.2579V0.976559C14.2579 0.437303 13.8206 0 13.2813 0H9.37506C7.75964 0 6.44538 1.31425 6.44538 2.92968V9.76559H4.88279C2.19042 9.76559 0 11.956 0 14.6484V40.0389C0 42.7313 2.19042 44.9217 4.88279 44.9217H45.1172C47.8096 44.9217 50 42.7313 50 40.0389V14.6484C50 11.956 47.8096 9.76559 45.1172 9.76559ZM40.6249 3.90623C41.9165 3.95438 41.9203 5.80965 40.6249 5.85935H14.2579V3.90623H40.6249ZM8.3985 2.92968C8.3985 2.3912 8.83659 1.95312 9.37506 1.95312H12.3047V9.76559H8.3985V2.92968ZM4.88279 11.7187H45.1172C46.7326 11.7187 48.0469 13.033 48.0469 14.6484V36.135C47.2303 35.5207 46.2155 35.1561 45.1172 35.1561H4.88279C3.78446 35.1561 2.76972 35.5207 1.95312 36.135V14.6484C1.95312 13.033 3.26737 11.7187 4.88279 11.7187ZM45.1172 42.9686H4.88279C3.26737 42.9686 1.95312 41.6543 1.95312 40.0389C1.95312 38.4235 3.26737 37.1092 4.88279 37.1092H45.1172C48.987 37.2511 49.008 42.818 45.1172 42.9686Z" fill="#020288"/>
<path d="M9.86293 39.0624H5.95668C4.66371 39.1098 4.66205 40.9675 5.95668 41.0155H9.86293C10.4022 41.0155 10.8395 40.5782 10.8395 40.0389C10.8395 39.4997 10.4023 39.0624 9.86293 39.0624Z" fill="#020288"/>
<path d="M14.7465 39.0624C14.2069 39.062 13.7695 39.4994 13.7695 40.0389C13.8176 41.3326 15.6753 41.3328 15.723 40.0389C15.723 39.4997 15.2857 39.0624 14.7465 39.0624Z" fill="#020288"/>
<path d="M19.6293 39.0624C19.0897 39.062 18.6523 39.4994 18.6523 40.0389C18.7004 41.3326 20.5581 41.3328 20.6059 40.0389C20.6059 39.4997 20.1686 39.0624 19.6293 39.0624Z" fill="#020288"/>
<path d="M24.5121 39.0624C23.9726 39.0619 23.5352 39.4994 23.5352 40.0389C23.5832 41.3326 25.4409 41.3328 25.4887 40.0389C25.4887 39.4997 25.0514 39.0624 24.5121 39.0624Z" fill="#020288"/>
<path d="M29.3948 39.0624C28.8552 39.0619 28.4178 39.4994 28.4178 40.0389C28.4659 41.3326 30.3236 41.3328 30.3714 40.0389C30.3714 39.4997 29.9341 39.0624 29.3948 39.0624Z" fill="#020288"/>
<path d="M34.2777 39.0624C33.7382 39.062 33.3008 39.4994 33.3008 40.0389C33.3488 41.3326 35.2065 41.3328 35.2543 40.0389C35.2543 39.4997 34.817 39.0624 34.2777 39.0624Z" fill="#020288"/>
<path d="M39.1603 39.0624C38.6208 39.0619 38.1833 39.4994 38.1833 40.0389C38.2314 41.3326 40.0891 41.3328 40.1369 40.0389C40.1369 39.4997 39.6996 39.0624 39.1603 39.0624Z" fill="#020288"/>
<path d="M44.0431 39.0624C43.5036 39.0619 43.0662 39.4994 43.0662 40.0389C43.1142 41.3326 44.9719 41.3328 45.0197 40.0389C45.0197 39.4997 44.5824 39.0624 44.0431 39.0624Z" fill="#020288"/>
<path d="M20.1666 24.4632C21.4577 23.172 23.1744 22.461 25.0003 22.461C26.8261 22.461 28.5428 23.172 29.8339 24.4632C30.0247 24.6538 30.2746 24.7492 30.5245 24.7492C31.3722 24.7643 31.834 23.6828 31.215 23.0822C29.5549 21.4221 27.3479 20.5079 25.0003 20.5079C22.6526 20.5079 20.4455 21.4221 18.7854 23.0822C18.4041 23.4635 18.4041 24.0819 18.7854 24.4633C19.1669 24.8445 19.7851 24.8445 20.1666 24.4632Z" fill="#020288"/>
<path d="M25 24.414C23.6957 24.414 22.4694 24.9219 21.5474 25.8443C20.6653 26.7895 21.9823 28.108 22.9285 27.2252C24.0188 26.0887 25.9814 26.0888 27.0717 27.2252C28.0155 28.1076 29.3359 26.7905 28.4527 25.8443C27.5306 24.9219 26.3043 24.414 25 24.414Z" fill="#020288"/>
<path d="M24.9995 28.3202C24.4603 28.3202 24.0229 28.7575 24.0229 29.2967C24.0708 30.5908 25.929 30.5906 25.9765 29.2967C25.9765 28.7575 25.5389 28.3202 24.9995 28.3202Z" fill="#020288"/>
</svg>
